<svg width="38" height="41" viewBox="0 0 38 41" fill="none" xmlns="http://www.w3.org/2000/svg">
<path d="M35.2857 0.5H2.7058C1.21295 0.5 0 1.79464 0 3.38393V37.6161C0 39.2054 1.21295 40.5 2.7058 40.5H35.2857C36.7786 40.5 38 39.2054 38 37.6161V3.38393C38 1.79464 36.7786 0.5 35.2857 0.5ZM11.4848 34.7857H5.85268V15.6964H11.4933V34.7857H11.4848ZM8.66875 13.0893C6.86205 13.0893 5.40312 11.5446 5.40312 9.65179C5.40312 7.75893 6.86205 6.21429 8.66875 6.21429C10.467 6.21429 11.9344 7.75893 11.9344 9.65179C11.9344 11.5536 10.4754 13.0893 8.66875 13.0893ZM32.5969 34.7857H26.9647V25.5C26.9647 23.2857 26.9223 20.4375 24.0384 20.4375C21.1036 20.4375 20.654 22.8482 20.654 25.3393V34.7857H15.0219V15.6964H20.425V18.3036H20.5013C21.2562 16.8036 23.0969 15.2232 25.8366 15.2232C31.5366 15.2232 32.5969 19.1786 32.5969 24.3214V34.7857Z" fill="white"/>
</svg>
