<svg width="45" height="47" viewBox="0 0 45 47" fill="none" xmlns="http://www.w3.org/2000/svg">
<path d="M22.5 0C10.0706 0 0 10.5181 0 23.5C0 36.4819 10.0706 47 22.5 47C34.9294 47 45 36.4819 45 23.5C45 10.5181 34.9294 0 22.5 0ZM33.5504 16.0994L29.8579 34.274C29.5857 35.5627 28.8508 35.8754 27.8256 35.269L22.2006 30.9385L19.4879 33.6675C19.1885 33.9802 18.9345 34.2456 18.3538 34.2456L18.753 28.2663L29.1774 18.4304C29.6311 18.0135 29.0776 17.7766 28.4788 18.1935L15.5958 26.6649L10.0433 24.855C8.83669 24.4571 8.80948 23.5948 10.2974 22.9883L31.9899 14.2516C32.997 13.8726 33.877 14.5075 33.5504 16.0994Z" fill="white"/>
</svg>
