<svg width="1440" height="1175" viewBox="0 0 1440 1175" fill="none" xmlns="http://www.w3.org/2000/svg">
<g style="mix-blend-mode:overlay">
<path d="M311.167 412.104L445.7 385.3L574.843 315.125L781.565 316.929L829.484 323.051L868.021 317.683L1123 380.5" stroke="#F7FAFB" stroke-width="12" stroke-miterlimit="10"/>
</g>
<path style="mix-blend-mode:color-dodge" d="M643.495 323.341C649.208 288.144 625.307 254.979 590.11 249.266C554.913 243.553 521.749 267.454 516.035 302.651C510.322 337.848 534.223 371.012 569.42 376.726C604.617 382.439 637.782 358.538 643.495 323.341Z" fill="url(#paint0_radial_99_351)"/>
<path style="mix-blend-mode:color-dodge" d="M422.54 940.418C430.808 904.914 410.025 870.726 376.12 864.058C342.215 857.389 308.027 880.766 299.759 916.27C291.492 951.774 312.275 985.962 346.18 992.63C380.085 999.299 414.273 975.923 422.54 940.418Z" fill="url(#paint1_radial_99_351)"/>
<path style="mix-blend-mode:color-dodge" d="M606.559 933.173C612.273 897.976 588.372 864.812 553.175 859.098C517.978 853.385 484.813 877.286 479.1 912.483C473.387 947.68 497.288 980.845 532.485 986.558C567.682 992.271 600.846 968.37 606.559 933.173Z" fill="url(#paint2_radial_99_351)"/>
<path style="mix-blend-mode:color-dodge" d="M512.992 392.696C518.705 357.499 494.804 324.335 459.607 318.621C424.41 312.908 391.246 336.809 385.532 372.006C379.819 407.203 403.72 440.368 438.917 446.081C474.114 451.794 507.279 427.893 512.992 392.696Z" fill="url(#paint3_radial_99_351)"/>
<path style="mix-blend-mode:color-dodge" d="M115.739 244.136C121.452 208.939 97.5508 175.775 62.3538 170.062C27.1568 164.349 -6.00754 188.25 -11.7208 223.447C-17.4341 258.644 6.46721 291.808 41.6642 297.521C76.8612 303.235 110.025 279.333 115.739 244.136Z" fill="url(#paint4_radial_99_351)"/>
<path style="mix-blend-mode:color-dodge" d="M846.635 327.855C852.348 292.658 828.447 259.494 793.25 253.781C758.053 248.067 724.889 271.969 719.175 307.166C713.462 342.363 737.363 375.527 772.56 381.24C807.757 386.953 840.922 363.052 846.635 327.855Z" fill="url(#paint5_radial_99_351)"/>
<path style="mix-blend-mode:color-dodge" d="M903.268 333.19C908.982 297.993 885.08 264.829 849.883 259.116C814.686 253.402 781.522 277.304 775.809 312.501C770.096 347.698 793.997 380.862 829.194 386.575C864.391 392.288 897.555 368.387 903.268 333.19Z" fill="url(#paint6_radial_99_351)"/>
<path style="mix-blend-mode:color-dodge" d="M1186.8 388.42C1192.52 353.223 1168.62 320.058 1133.42 314.345C1098.22 308.632 1065.06 332.533 1059.34 367.73C1053.63 402.927 1077.53 436.091 1112.73 441.805C1147.93 447.518 1181.09 423.617 1186.8 388.42Z" fill="url(#paint7_radial_99_351)"/>
<path style="mix-blend-mode:color-dodge" d="M1417.07 541.666C1422.78 506.469 1398.88 473.304 1363.69 467.591C1328.49 461.878 1295.32 485.779 1289.61 520.976C1283.9 556.173 1307.8 589.337 1343 595.05C1378.19 600.764 1411.36 576.863 1417.07 541.666Z" fill="url(#paint8_radial_99_351)"/>
<path style="mix-blend-mode:color-dodge" d="M532.28 1003.35C537.993 968.153 514.092 934.988 478.895 929.275C443.698 923.562 410.534 947.463 404.82 982.66C399.107 1017.86 423.008 1051.02 458.205 1056.73C493.402 1062.45 526.567 1038.55 532.28 1003.35Z" fill="url(#paint9_radial_99_351)"/>
<path style="mix-blend-mode:color-dodge" d="M1300.8 417.419C1306.52 382.222 1282.62 349.058 1247.42 343.345C1212.22 337.631 1179.06 361.533 1173.34 396.73C1167.63 431.927 1191.53 465.091 1226.73 470.804C1261.93 476.518 1295.09 452.616 1300.8 417.419Z" fill="url(#paint10_radial_99_351)"/>
<path style="mix-blend-mode:color-dodge" d="M1140.88 1017.71C1146.59 982.516 1122.69 949.352 1087.5 943.638C1052.3 937.925 1019.13 961.826 1013.42 997.023C1007.71 1032.22 1031.61 1065.38 1066.81 1071.1C1102 1076.81 1135.17 1052.91 1140.88 1017.71Z" fill="url(#paint11_radial_99_351)"/>
<path style="mix-blend-mode:color-dodge" d="M317.636 944.173C320.897 924.088 307.258 905.163 287.173 901.903C267.088 898.643 248.163 912.282 244.903 932.367C241.643 952.451 255.282 971.376 275.367 974.636C295.451 977.897 314.376 964.258 317.636 944.173Z" fill="url(#paint12_radial_99_351)"/>
<g style="mix-blend-mode:overlay">
<path d="M1292 672.5L1344.28 538.328L1235.79 407.216L1122 380" stroke="#F7FAFB" stroke-width="12" stroke-miterlimit="10"/>
</g>
<g style="mix-blend-mode:overlay">
<path d="M164.068 759.629L100.62 813.804L106.591 861.319L161.835 887" stroke="#F7FAFB" stroke-width="12" stroke-miterlimit="10"/>
</g>
<g style="mix-blend-mode:overlay">
<path d="M214.836 284.171L44.0811 238.269L-3.95673 111.5" stroke="#F7FAFB" stroke-width="15" stroke-miterlimit="10"/>
</g>
<g style="mix-blend-mode:overlay">
<path d="M974 980.5L822.138 970.982L720.741 984.468L653.095 954.776L557.889 951.946L468.621 998.58L362.806 929.774L283.001 943.775L163.233 887" stroke="#F7FAFB" stroke-width="12" stroke-miterlimit="10"/>
</g>
<g style="mix-blend-mode:overlay">
<path d="M1293.21 668.47L1266.47 721.647L1181 668.47L1128 618L1048.5 585L979.5 585L900 585L776.5 585" stroke="#F7FAFB" stroke-width="12" stroke-miterlimit="10"/>
</g>
<path style="mix-blend-mode:color-dodge" d="M1320.83 684.112C1300.1 655.098 1259.78 648.381 1230.76 669.109C1201.75 689.837 1195.03 730.161 1215.76 759.175C1236.49 788.189 1276.81 794.906 1305.83 774.178C1334.84 753.45 1341.56 713.126 1320.83 684.112Z" fill="url(#paint13_radial_99_351)"/>
<path style="mix-blend-mode:color-dodge" d="M1346.27 631.993C1325.54 602.979 1285.22 596.262 1256.21 616.99C1227.19 637.718 1220.48 678.042 1241.2 707.056C1261.93 736.07 1302.26 742.787 1331.27 722.059C1360.28 701.331 1367 661.007 1346.27 631.993Z" fill="url(#paint14_radial_99_351)"/>
<path style="mix-blend-mode:color-dodge" d="M1233.29 624.225C1212.56 595.211 1172.24 588.494 1143.22 609.222C1114.21 629.95 1107.49 670.274 1128.22 699.288C1148.95 728.302 1189.27 735.019 1218.29 714.291C1247.3 693.563 1254.02 653.239 1233.29 624.225Z" fill="url(#paint15_radial_99_351)"/>
<g style="mix-blend-mode:overlay">
<path d="M1444.5 1171L1365.65 1043.07L1270.24 980.488L1186.52 1030.97L973 980.488" stroke="#F7FAFB" stroke-width="14" stroke-miterlimit="10"/>
</g>
<path style="mix-blend-mode:color-dodge" d="M1036.8 990.419C1042.52 955.222 1018.62 922.058 983.419 916.345C948.222 910.632 915.058 934.533 909.345 969.73C903.632 1004.93 927.533 1038.09 962.73 1043.8C997.927 1049.52 1031.09 1025.62 1036.8 990.419Z" fill="url(#paint16_radial_99_351)"/>
<path style="mix-blend-mode:color-dodge" d="M713.723 584.393C701.877 567.819 678.867 563.957 662.328 575.768C645.79 587.579 641.986 610.589 653.833 627.163C665.679 643.737 688.689 647.598 705.228 635.788C721.766 623.977 725.57 600.967 713.723 584.393Z" fill="url(#paint17_radial_99_351)"/>
<path style="mix-blend-mode:color-dodge" d="M815.292 557.761C799.937 536.279 770.113 531.275 748.678 546.583C727.242 561.891 722.312 591.715 737.666 613.197C753.021 634.679 782.845 639.683 804.28 624.375C825.716 609.067 830.646 579.243 815.292 557.761Z" fill="url(#paint18_radial_99_351)"/>
<path style="mix-blend-mode:color-dodge" d="M777.317 947.963C757.519 917.703 717.532 908.629 688.001 927.697C658.471 946.764 650.581 986.752 670.378 1017.01C690.176 1047.27 730.164 1056.35 759.694 1037.28C789.224 1018.21 797.114 978.223 777.317 947.963Z" fill="url(#paint19_radial_99_351)"/>
<path style="mix-blend-mode:color-dodge" d="M707.814 921.886C688.017 891.626 648.029 882.552 618.499 901.62C588.969 920.687 581.079 960.675 600.876 990.935C620.673 1021.2 660.661 1030.27 690.192 1011.2C719.722 992.134 727.612 952.146 707.814 921.886Z" fill="url(#paint20_radial_99_351)"/>
<path style="mix-blend-mode:color-dodge" d="M877.023 941.28C857.226 911.02 817.238 901.947 787.708 921.014C758.177 940.081 750.287 980.069 770.085 1010.33C789.882 1040.59 829.87 1049.66 859.4 1030.6C888.93 1011.53 896.82 971.541 877.023 941.28Z" fill="url(#paint21_radial_99_351)"/>
<path style="mix-blend-mode:color-dodge" d="M1331.68 939.097C1306.34 903.64 1257.11 895.379 1221.73 920.646C1186.35 945.914 1178.21 995.141 1203.56 1030.6C1228.9 1066.06 1278.13 1074.32 1313.51 1049.05C1348.89 1023.78 1357.03 974.555 1331.68 939.097Z" fill="url(#paint22_radial_99_351)"/>
<path style="mix-blend-mode:color-dodge" d="M1428.95 996.962C1403.6 961.505 1354.38 953.244 1318.99 978.511C1283.61 1003.78 1275.48 1053.01 1300.82 1088.46C1326.16 1123.92 1375.39 1132.18 1410.77 1106.91C1446.15 1081.65 1454.29 1032.42 1428.95 996.962Z" fill="url(#paint23_radial_99_351)"/>
<g style="mix-blend-mode:overlay">
<path d="M778.5 584L564.437 631.756L424.855 714.327L218.715 733.262L207.212 735.595L162 761" stroke="#F7FAFB" stroke-width="12" stroke-miterlimit="10"/>
</g>
<path style="mix-blend-mode:color-dodge" d="M624.804 645.419C630.518 610.222 606.616 577.058 571.419 571.345C536.222 565.631 503.058 589.533 497.345 624.73C491.632 659.927 515.533 693.091 550.73 698.804C585.927 704.518 619.091 680.616 624.804 645.419Z" fill="url(#paint24_radial_99_351)"/>
<path style="mix-blend-mode:color-dodge" d="M488.804 721.419C494.518 686.222 470.616 653.058 435.419 647.345C400.222 641.631 367.058 665.532 361.345 700.729C355.631 735.926 379.533 769.091 414.73 774.804C449.927 780.517 483.091 756.616 488.804 721.419Z" fill="url(#paint25_radial_99_351)"/>
<path style="mix-blend-mode:color-dodge" d="M269.764 724.914C260.116 687.882 225.903 662.054 193.346 667.226C160.789 672.399 142.218 706.612 151.865 743.644C161.513 780.677 195.727 806.504 228.283 801.332C260.84 796.16 279.412 761.946 269.764 724.914Z" fill="url(#paint26_radial_99_351)"/>
<path style="mix-blend-mode:color-dodge" d="M221.678 754.363C212.03 717.331 177.817 691.504 145.26 696.676C112.703 701.848 94.1316 736.062 103.779 773.094C113.427 810.126 147.641 835.954 180.197 830.781C212.754 825.609 231.326 791.396 221.678 754.363Z" fill="url(#paint27_radial_99_351)"/>
<path style="mix-blend-mode:color-dodge" d="M168.678 803.363C159.03 766.331 124.817 740.504 92.2599 745.676C59.7031 750.848 41.1316 785.062 50.7793 822.094C60.427 859.126 94.6406 884.954 127.197 879.781C159.754 874.609 178.326 840.396 168.678 803.363Z" fill="url(#paint28_radial_99_351)"/>
<path style="mix-blend-mode:color-dodge" d="M217.678 877.363C208.03 840.331 173.817 814.504 141.26 819.676C108.703 824.848 90.1317 859.062 99.7794 896.094C109.427 933.126 143.641 958.954 176.197 953.781C208.754 948.609 227.326 914.396 217.678 877.363Z" fill="url(#paint29_radial_99_351)"/>
<defs>
<radialGradient id="paint0_radial_99_351" cx="0" cy="0" r="1" gradientUnits="userSpaceOnUse" gradientTransform="translate(579.246 312.933) rotate(-180) scale(64.5639 64.5639)">
<stop stop-color="white"/>
<stop offset="0.06" stop-color="#DEDEDE" stop-opacity="0.87"/>
<stop offset="0.16" stop-color="#ABABAB" stop-opacity="0.67"/>
<stop offset="0.26" stop-color="#7D7D7D" stop-opacity="0.49"/>
<stop offset="0.37" stop-color="#565656" stop-opacity="0.34"/>
<stop offset="0.48" stop-color="#373737" stop-opacity="0.22"/>
<stop offset="0.59" stop-color="#1F1F1F" stop-opacity="0.12"/>
<stop offset="0.71" stop-color="#0E0E0E" stop-opacity="0.05"/>
<stop offset="0.84" stop-color="#030303" stop-opacity="0.01"/>
<stop offset="1" stop-opacity="0"/>
</radialGradient>
<radialGradient id="paint1_radial_99_351" cx="0" cy="0" r="1" gradientUnits="userSpaceOnUse" gradientTransform="translate(360.649 928.267) rotate(-178.529) scale(63.0168 65.4956)">
<stop stop-color="white"/>
<stop offset="0.06" stop-color="#DEDEDE" stop-opacity="0.87"/>
<stop offset="0.16" stop-color="#ABABAB" stop-opacity="0.67"/>
<stop offset="0.26" stop-color="#7D7D7D" stop-opacity="0.49"/>
<stop offset="0.37" stop-color="#565656" stop-opacity="0.34"/>
<stop offset="0.48" stop-color="#373737" stop-opacity="0.22"/>
<stop offset="0.59" stop-color="#1F1F1F" stop-opacity="0.12"/>
<stop offset="0.71" stop-color="#0E0E0E" stop-opacity="0.05"/>
<stop offset="0.84" stop-color="#030303" stop-opacity="0.01"/>
<stop offset="1" stop-opacity="0"/>
</radialGradient>
<radialGradient id="paint2_radial_99_351" cx="0" cy="0" r="1" gradientUnits="userSpaceOnUse" gradientTransform="translate(542.311 922.765) rotate(-180) scale(64.5639 64.5639)">
<stop stop-color="white"/>
<stop offset="0.06" stop-color="#DEDEDE" stop-opacity="0.87"/>
<stop offset="0.16" stop-color="#ABABAB" stop-opacity="0.67"/>
<stop offset="0.26" stop-color="#7D7D7D" stop-opacity="0.49"/>
<stop offset="0.37" stop-color="#565656" stop-opacity="0.34"/>
<stop offset="0.48" stop-color="#373737" stop-opacity="0.22"/>
<stop offset="0.59" stop-color="#1F1F1F" stop-opacity="0.12"/>
<stop offset="0.71" stop-color="#0E0E0E" stop-opacity="0.05"/>
<stop offset="0.84" stop-color="#030303" stop-opacity="0.01"/>
<stop offset="1" stop-opacity="0"/>
</radialGradient>
<radialGradient id="paint3_radial_99_351" cx="0" cy="0" r="1" gradientUnits="userSpaceOnUse" gradientTransform="translate(448.743 382.288) rotate(-180) scale(64.5639 64.5639)">
<stop stop-color="white"/>
<stop offset="0.06" stop-color="#DEDEDE" stop-opacity="0.87"/>
<stop offset="0.16" stop-color="#ABABAB" stop-opacity="0.67"/>
<stop offset="0.26" stop-color="#7D7D7D" stop-opacity="0.49"/>
<stop offset="0.37" stop-color="#565656" stop-opacity="0.34"/>
<stop offset="0.48" stop-color="#373737" stop-opacity="0.22"/>
<stop offset="0.59" stop-color="#1F1F1F" stop-opacity="0.12"/>
<stop offset="0.71" stop-color="#0E0E0E" stop-opacity="0.05"/>
<stop offset="0.84" stop-color="#030303" stop-opacity="0.01"/>
<stop offset="1" stop-opacity="0"/>
</radialGradient>
<radialGradient id="paint4_radial_99_351" cx="0" cy="0" r="1" gradientUnits="userSpaceOnUse" gradientTransform="translate(51.4903 233.728) rotate(-180) scale(64.5639 64.5639)">
<stop stop-color="white"/>
<stop offset="0.06" stop-color="#DEDEDE" stop-opacity="0.87"/>
<stop offset="0.16" stop-color="#ABABAB" stop-opacity="0.67"/>
<stop offset="0.26" stop-color="#7D7D7D" stop-opacity="0.49"/>
<stop offset="0.37" stop-color="#565656" stop-opacity="0.34"/>
<stop offset="0.48" stop-color="#373737" stop-opacity="0.22"/>
<stop offset="0.59" stop-color="#1F1F1F" stop-opacity="0.12"/>
<stop offset="0.71" stop-color="#0E0E0E" stop-opacity="0.05"/>
<stop offset="0.84" stop-color="#030303" stop-opacity="0.01"/>
<stop offset="1" stop-opacity="0"/>
</radialGradient>
<radialGradient id="paint5_radial_99_351" cx="0" cy="0" r="1" gradientUnits="userSpaceOnUse" gradientTransform="translate(782.387 317.447) rotate(-180) scale(64.5639 64.5639)">
<stop stop-color="white"/>
<stop offset="0.06" stop-color="#DEDEDE" stop-opacity="0.87"/>
<stop offset="0.16" stop-color="#ABABAB" stop-opacity="0.67"/>
<stop offset="0.26" stop-color="#7D7D7D" stop-opacity="0.49"/>
<stop offset="0.37" stop-color="#565656" stop-opacity="0.34"/>
<stop offset="0.48" stop-color="#373737" stop-opacity="0.22"/>
<stop offset="0.59" stop-color="#1F1F1F" stop-opacity="0.12"/>
<stop offset="0.71" stop-color="#0E0E0E" stop-opacity="0.05"/>
<stop offset="0.84" stop-color="#030303" stop-opacity="0.01"/>
<stop offset="1" stop-opacity="0"/>
</radialGradient>
<radialGradient id="paint6_radial_99_351" cx="0" cy="0" r="1" gradientUnits="userSpaceOnUse" gradientTransform="translate(839.02 322.782) rotate(-180) scale(64.5639 64.5639)">
<stop stop-color="white"/>
<stop offset="0.06" stop-color="#DEDEDE" stop-opacity="0.87"/>
<stop offset="0.16" stop-color="#ABABAB" stop-opacity="0.67"/>
<stop offset="0.26" stop-color="#7D7D7D" stop-opacity="0.49"/>
<stop offset="0.37" stop-color="#565656" stop-opacity="0.34"/>
<stop offset="0.48" stop-color="#373737" stop-opacity="0.22"/>
<stop offset="0.59" stop-color="#1F1F1F" stop-opacity="0.12"/>
<stop offset="0.71" stop-color="#0E0E0E" stop-opacity="0.05"/>
<stop offset="0.84" stop-color="#030303" stop-opacity="0.01"/>
<stop offset="1" stop-opacity="0"/>
</radialGradient>
<radialGradient id="paint7_radial_99_351" cx="0" cy="0" r="1" gradientUnits="userSpaceOnUse" gradientTransform="translate(1122.56 378.011) rotate(-180) scale(64.5639 64.5639)">
<stop stop-color="white"/>
<stop offset="0.06" stop-color="#DEDEDE" stop-opacity="0.87"/>
<stop offset="0.16" stop-color="#ABABAB" stop-opacity="0.67"/>
<stop offset="0.26" stop-color="#7D7D7D" stop-opacity="0.49"/>
<stop offset="0.37" stop-color="#565656" stop-opacity="0.34"/>
<stop offset="0.48" stop-color="#373737" stop-opacity="0.22"/>
<stop offset="0.59" stop-color="#1F1F1F" stop-opacity="0.12"/>
<stop offset="0.71" stop-color="#0E0E0E" stop-opacity="0.05"/>
<stop offset="0.84" stop-color="#030303" stop-opacity="0.01"/>
<stop offset="1" stop-opacity="0"/>
</radialGradient>
<radialGradient id="paint8_radial_99_351" cx="0" cy="0" r="1" gradientUnits="userSpaceOnUse" gradientTransform="translate(1352.82 531.257) rotate(-180) scale(64.5639 64.5639)">
<stop stop-color="white"/>
<stop offset="0.06" stop-color="#DEDEDE" stop-opacity="0.87"/>
<stop offset="0.16" stop-color="#ABABAB" stop-opacity="0.67"/>
<stop offset="0.26" stop-color="#7D7D7D" stop-opacity="0.49"/>
<stop offset="0.37" stop-color="#565656" stop-opacity="0.34"/>
<stop offset="0.48" stop-color="#373737" stop-opacity="0.22"/>
<stop offset="0.59" stop-color="#1F1F1F" stop-opacity="0.12"/>
<stop offset="0.71" stop-color="#0E0E0E" stop-opacity="0.05"/>
<stop offset="0.84" stop-color="#030303" stop-opacity="0.01"/>
<stop offset="1" stop-opacity="0"/>
</radialGradient>
<radialGradient id="paint9_radial_99_351" cx="0" cy="0" r="1" gradientUnits="userSpaceOnUse" gradientTransform="translate(468.032 992.942) rotate(-180) scale(64.5639 64.5639)">
<stop stop-color="white"/>
<stop offset="0.06" stop-color="#DEDEDE" stop-opacity="0.87"/>
<stop offset="0.16" stop-color="#ABABAB" stop-opacity="0.67"/>
<stop offset="0.26" stop-color="#7D7D7D" stop-opacity="0.49"/>
<stop offset="0.37" stop-color="#565656" stop-opacity="0.34"/>
<stop offset="0.48" stop-color="#373737" stop-opacity="0.22"/>
<stop offset="0.59" stop-color="#1F1F1F" stop-opacity="0.12"/>
<stop offset="0.71" stop-color="#0E0E0E" stop-opacity="0.05"/>
<stop offset="0.84" stop-color="#030303" stop-opacity="0.01"/>
<stop offset="1" stop-opacity="0"/>
</radialGradient>
<radialGradient id="paint10_radial_99_351" cx="0" cy="0" r="1" gradientUnits="userSpaceOnUse" gradientTransform="translate(1236.56 407.011) rotate(-180) scale(64.5639 64.5639)">
<stop stop-color="white"/>
<stop offset="0.06" stop-color="#DEDEDE" stop-opacity="0.87"/>
<stop offset="0.16" stop-color="#ABABAB" stop-opacity="0.67"/>
<stop offset="0.26" stop-color="#7D7D7D" stop-opacity="0.49"/>
<stop offset="0.37" stop-color="#565656" stop-opacity="0.34"/>
<stop offset="0.48" stop-color="#373737" stop-opacity="0.22"/>
<stop offset="0.59" stop-color="#1F1F1F" stop-opacity="0.12"/>
<stop offset="0.71" stop-color="#0E0E0E" stop-opacity="0.05"/>
<stop offset="0.84" stop-color="#030303" stop-opacity="0.01"/>
<stop offset="1" stop-opacity="0"/>
</radialGradient>
<radialGradient id="paint11_radial_99_351" cx="0" cy="0" r="1" gradientUnits="userSpaceOnUse" gradientTransform="translate(1076.63 1007.3) rotate(-180) scale(64.5639 64.5639)">
<stop stop-color="white"/>
<stop offset="0.06" stop-color="#DEDEDE" stop-opacity="0.87"/>
<stop offset="0.16" stop-color="#ABABAB" stop-opacity="0.67"/>
<stop offset="0.26" stop-color="#7D7D7D" stop-opacity="0.49"/>
<stop offset="0.37" stop-color="#565656" stop-opacity="0.34"/>
<stop offset="0.48" stop-color="#373737" stop-opacity="0.22"/>
<stop offset="0.59" stop-color="#1F1F1F" stop-opacity="0.12"/>
<stop offset="0.71" stop-color="#0E0E0E" stop-opacity="0.05"/>
<stop offset="0.84" stop-color="#030303" stop-opacity="0.01"/>
<stop offset="1" stop-opacity="0"/>
</radialGradient>
<radialGradient id="paint12_radial_99_351" cx="0" cy="0" r="1" gradientUnits="userSpaceOnUse" gradientTransform="translate(280.974 938.234) rotate(-180) scale(36.8426 36.8426)">
<stop stop-color="white"/>
<stop offset="0.06" stop-color="#DEDEDE" stop-opacity="0.87"/>
<stop offset="0.16" stop-color="#ABABAB" stop-opacity="0.67"/>
<stop offset="0.26" stop-color="#7D7D7D" stop-opacity="0.49"/>
<stop offset="0.37" stop-color="#565656" stop-opacity="0.34"/>
<stop offset="0.48" stop-color="#373737" stop-opacity="0.22"/>
<stop offset="0.59" stop-color="#1F1F1F" stop-opacity="0.12"/>
<stop offset="0.71" stop-color="#0E0E0E" stop-opacity="0.05"/>
<stop offset="0.84" stop-color="#030303" stop-opacity="0.01"/>
<stop offset="1" stop-opacity="0"/>
</radialGradient>
<radialGradient id="paint13_radial_99_351" cx="0" cy="0" r="1" gradientUnits="userSpaceOnUse" gradientTransform="translate(1267.88 721.964) rotate(135.237) scale(64.5639 64.5639)">
<stop stop-color="white"/>
<stop offset="0.06" stop-color="#DEDEDE" stop-opacity="0.87"/>
<stop offset="0.16" stop-color="#ABABAB" stop-opacity="0.67"/>
<stop offset="0.26" stop-color="#7D7D7D" stop-opacity="0.49"/>
<stop offset="0.37" stop-color="#565656" stop-opacity="0.34"/>
<stop offset="0.48" stop-color="#373737" stop-opacity="0.22"/>
<stop offset="0.59" stop-color="#1F1F1F" stop-opacity="0.12"/>
<stop offset="0.71" stop-color="#0E0E0E" stop-opacity="0.05"/>
<stop offset="0.84" stop-color="#030303" stop-opacity="0.01"/>
<stop offset="1" stop-opacity="0"/>
</radialGradient>
<radialGradient id="paint14_radial_99_351" cx="0" cy="0" r="1" gradientUnits="userSpaceOnUse" gradientTransform="translate(1293.32 669.845) rotate(135.237) scale(64.5639 64.5639)">
<stop stop-color="white"/>
<stop offset="0.06" stop-color="#DEDEDE" stop-opacity="0.87"/>
<stop offset="0.16" stop-color="#ABABAB" stop-opacity="0.67"/>
<stop offset="0.26" stop-color="#7D7D7D" stop-opacity="0.49"/>
<stop offset="0.37" stop-color="#565656" stop-opacity="0.34"/>
<stop offset="0.48" stop-color="#373737" stop-opacity="0.22"/>
<stop offset="0.59" stop-color="#1F1F1F" stop-opacity="0.12"/>
<stop offset="0.71" stop-color="#0E0E0E" stop-opacity="0.05"/>
<stop offset="0.84" stop-color="#030303" stop-opacity="0.01"/>
<stop offset="1" stop-opacity="0"/>
</radialGradient>
<radialGradient id="paint15_radial_99_351" cx="0" cy="0" r="1" gradientUnits="userSpaceOnUse" gradientTransform="translate(1180.34 662.077) rotate(135.237) scale(64.5639 64.5639)">
<stop stop-color="white"/>
<stop offset="0.06" stop-color="#DEDEDE" stop-opacity="0.87"/>
<stop offset="0.16" stop-color="#ABABAB" stop-opacity="0.67"/>
<stop offset="0.26" stop-color="#7D7D7D" stop-opacity="0.49"/>
<stop offset="0.37" stop-color="#565656" stop-opacity="0.34"/>
<stop offset="0.48" stop-color="#373737" stop-opacity="0.22"/>
<stop offset="0.59" stop-color="#1F1F1F" stop-opacity="0.12"/>
<stop offset="0.71" stop-color="#0E0E0E" stop-opacity="0.05"/>
<stop offset="0.84" stop-color="#030303" stop-opacity="0.01"/>
<stop offset="1" stop-opacity="0"/>
</radialGradient>
<radialGradient id="paint16_radial_99_351" cx="0" cy="0" r="1" gradientUnits="userSpaceOnUse" gradientTransform="translate(972.556 980.011) rotate(-180) scale(64.5639 64.5639)">
<stop stop-color="white"/>
<stop offset="0.06" stop-color="#DEDEDE" stop-opacity="0.87"/>
<stop offset="0.16" stop-color="#ABABAB" stop-opacity="0.67"/>
<stop offset="0.26" stop-color="#7D7D7D" stop-opacity="0.49"/>
<stop offset="0.37" stop-color="#565656" stop-opacity="0.34"/>
<stop offset="0.48" stop-color="#373737" stop-opacity="0.22"/>
<stop offset="0.59" stop-color="#1F1F1F" stop-opacity="0.12"/>
<stop offset="0.71" stop-color="#0E0E0E" stop-opacity="0.05"/>
<stop offset="0.84" stop-color="#030303" stop-opacity="0.01"/>
<stop offset="1" stop-opacity="0"/>
</radialGradient>
<radialGradient id="paint17_radial_99_351" cx="0" cy="0" r="1" gradientUnits="userSpaceOnUse" gradientTransform="translate(683.543 605.96) rotate(135.225) scale(36.7974 36.8875)">
<stop stop-color="white"/>
<stop offset="0.06" stop-color="#DEDEDE" stop-opacity="0.87"/>
<stop offset="0.16" stop-color="#ABABAB" stop-opacity="0.67"/>
<stop offset="0.26" stop-color="#7D7D7D" stop-opacity="0.49"/>
<stop offset="0.37" stop-color="#565656" stop-opacity="0.34"/>
<stop offset="0.48" stop-color="#373737" stop-opacity="0.22"/>
<stop offset="0.59" stop-color="#1F1F1F" stop-opacity="0.12"/>
<stop offset="0.71" stop-color="#0E0E0E" stop-opacity="0.05"/>
<stop offset="0.84" stop-color="#030303" stop-opacity="0.01"/>
<stop offset="1" stop-opacity="0"/>
</radialGradient>
<radialGradient id="paint18_radial_99_351" cx="0" cy="0" r="1" gradientUnits="userSpaceOnUse" gradientTransform="translate(776.174 585.716) rotate(135.225) scale(47.6937 47.8104)">
<stop stop-color="white"/>
<stop offset="0.06" stop-color="#DEDEDE" stop-opacity="0.87"/>
<stop offset="0.16" stop-color="#ABABAB" stop-opacity="0.67"/>
<stop offset="0.26" stop-color="#7D7D7D" stop-opacity="0.49"/>
<stop offset="0.37" stop-color="#565656" stop-opacity="0.34"/>
<stop offset="0.48" stop-color="#373737" stop-opacity="0.22"/>
<stop offset="0.59" stop-color="#1F1F1F" stop-opacity="0.12"/>
<stop offset="0.71" stop-color="#0E0E0E" stop-opacity="0.05"/>
<stop offset="0.84" stop-color="#030303" stop-opacity="0.01"/>
<stop offset="1" stop-opacity="0"/>
</radialGradient>
<radialGradient id="paint19_radial_99_351" cx="0" cy="0" r="1" gradientUnits="userSpaceOnUse" gradientTransform="translate(723.427 982.784) rotate(137.661) scale(63.6321 65.489)">
<stop stop-color="white"/>
<stop offset="0.06" stop-color="#DEDEDE" stop-opacity="0.87"/>
<stop offset="0.16" stop-color="#ABABAB" stop-opacity="0.67"/>
<stop offset="0.26" stop-color="#7D7D7D" stop-opacity="0.49"/>
<stop offset="0.37" stop-color="#565656" stop-opacity="0.34"/>
<stop offset="0.48" stop-color="#373737" stop-opacity="0.22"/>
<stop offset="0.59" stop-color="#1F1F1F" stop-opacity="0.12"/>
<stop offset="0.71" stop-color="#0E0E0E" stop-opacity="0.05"/>
<stop offset="0.84" stop-color="#030303" stop-opacity="0.01"/>
<stop offset="1" stop-opacity="0"/>
</radialGradient>
<radialGradient id="paint20_radial_99_351" cx="0" cy="0" r="1" gradientUnits="userSpaceOnUse" gradientTransform="translate(653.924 956.707) rotate(137.661) scale(63.6321 65.489)">
<stop stop-color="white"/>
<stop offset="0.06" stop-color="#DEDEDE" stop-opacity="0.87"/>
<stop offset="0.16" stop-color="#ABABAB" stop-opacity="0.67"/>
<stop offset="0.26" stop-color="#7D7D7D" stop-opacity="0.49"/>
<stop offset="0.37" stop-color="#565656" stop-opacity="0.34"/>
<stop offset="0.48" stop-color="#373737" stop-opacity="0.22"/>
<stop offset="0.59" stop-color="#1F1F1F" stop-opacity="0.12"/>
<stop offset="0.71" stop-color="#0E0E0E" stop-opacity="0.05"/>
<stop offset="0.84" stop-color="#030303" stop-opacity="0.01"/>
<stop offset="1" stop-opacity="0"/>
</radialGradient>
<radialGradient id="paint21_radial_99_351" cx="0" cy="0" r="1" gradientUnits="userSpaceOnUse" gradientTransform="translate(823.133 976.102) rotate(137.661) scale(63.6321 65.489)">
<stop stop-color="white"/>
<stop offset="0.06" stop-color="#DEDEDE" stop-opacity="0.87"/>
<stop offset="0.16" stop-color="#ABABAB" stop-opacity="0.67"/>
<stop offset="0.26" stop-color="#7D7D7D" stop-opacity="0.49"/>
<stop offset="0.37" stop-color="#565656" stop-opacity="0.34"/>
<stop offset="0.48" stop-color="#373737" stop-opacity="0.22"/>
<stop offset="0.59" stop-color="#1F1F1F" stop-opacity="0.12"/>
<stop offset="0.71" stop-color="#0E0E0E" stop-opacity="0.05"/>
<stop offset="0.84" stop-color="#030303" stop-opacity="0.01"/>
<stop offset="1" stop-opacity="0"/>
</radialGradient>
<radialGradient id="paint22_radial_99_351" cx="0" cy="0" r="1" gradientUnits="userSpaceOnUse" gradientTransform="translate(1267.12 985.238) rotate(135.225) scale(78.7225 78.9151)">
<stop stop-color="white"/>
<stop offset="0.06" stop-color="#DEDEDE" stop-opacity="0.87"/>
<stop offset="0.16" stop-color="#ABABAB" stop-opacity="0.67"/>
<stop offset="0.26" stop-color="#7D7D7D" stop-opacity="0.49"/>
<stop offset="0.37" stop-color="#565656" stop-opacity="0.34"/>
<stop offset="0.48" stop-color="#373737" stop-opacity="0.22"/>
<stop offset="0.59" stop-color="#1F1F1F" stop-opacity="0.12"/>
<stop offset="0.71" stop-color="#0E0E0E" stop-opacity="0.05"/>
<stop offset="0.84" stop-color="#030303" stop-opacity="0.01"/>
<stop offset="1" stop-opacity="0"/>
</radialGradient>
<radialGradient id="paint23_radial_99_351" cx="0" cy="0" r="1" gradientUnits="userSpaceOnUse" gradientTransform="translate(1364.38 1043.1) rotate(135.225) scale(78.7225 78.9151)">
<stop stop-color="white"/>
<stop offset="0.06" stop-color="#DEDEDE" stop-opacity="0.87"/>
<stop offset="0.16" stop-color="#ABABAB" stop-opacity="0.67"/>
<stop offset="0.26" stop-color="#7D7D7D" stop-opacity="0.49"/>
<stop offset="0.37" stop-color="#565656" stop-opacity="0.34"/>
<stop offset="0.48" stop-color="#373737" stop-opacity="0.22"/>
<stop offset="0.59" stop-color="#1F1F1F" stop-opacity="0.12"/>
<stop offset="0.71" stop-color="#0E0E0E" stop-opacity="0.05"/>
<stop offset="0.84" stop-color="#030303" stop-opacity="0.01"/>
<stop offset="1" stop-opacity="0"/>
</radialGradient>
<radialGradient id="paint24_radial_99_351" cx="0" cy="0" r="1" gradientUnits="userSpaceOnUse" gradientTransform="translate(560.556 635.011) rotate(-180) scale(64.5639 64.5639)">
<stop stop-color="white"/>
<stop offset="0.06" stop-color="#DEDEDE" stop-opacity="0.87"/>
<stop offset="0.16" stop-color="#ABABAB" stop-opacity="0.67"/>
<stop offset="0.26" stop-color="#7D7D7D" stop-opacity="0.49"/>
<stop offset="0.37" stop-color="#565656" stop-opacity="0.34"/>
<stop offset="0.48" stop-color="#373737" stop-opacity="0.22"/>
<stop offset="0.59" stop-color="#1F1F1F" stop-opacity="0.12"/>
<stop offset="0.71" stop-color="#0E0E0E" stop-opacity="0.05"/>
<stop offset="0.84" stop-color="#030303" stop-opacity="0.01"/>
<stop offset="1" stop-opacity="0"/>
</radialGradient>
<radialGradient id="paint25_radial_99_351" cx="0" cy="0" r="1" gradientUnits="userSpaceOnUse" gradientTransform="translate(424.556 711.011) rotate(-180) scale(64.5639 64.5639)">
<stop stop-color="white"/>
<stop offset="0.06" stop-color="#DEDEDE" stop-opacity="0.87"/>
<stop offset="0.16" stop-color="#ABABAB" stop-opacity="0.67"/>
<stop offset="0.26" stop-color="#7D7D7D" stop-opacity="0.49"/>
<stop offset="0.37" stop-color="#565656" stop-opacity="0.34"/>
<stop offset="0.48" stop-color="#373737" stop-opacity="0.22"/>
<stop offset="0.59" stop-color="#1F1F1F" stop-opacity="0.12"/>
<stop offset="0.71" stop-color="#0E0E0E" stop-opacity="0.05"/>
<stop offset="0.84" stop-color="#030303" stop-opacity="0.01"/>
<stop offset="1" stop-opacity="0"/>
</radialGradient>
<radialGradient id="paint26_radial_99_351" cx="0" cy="0" r="1" gradientUnits="userSpaceOnUse" gradientTransform="translate(210.343 734.376) rotate(160.157) scale(58.8849 69.9044)">
<stop stop-color="white"/>
<stop offset="0.06" stop-color="#DEDEDE" stop-opacity="0.87"/>
<stop offset="0.16" stop-color="#ABABAB" stop-opacity="0.67"/>
<stop offset="0.26" stop-color="#7D7D7D" stop-opacity="0.49"/>
<stop offset="0.37" stop-color="#565656" stop-opacity="0.34"/>
<stop offset="0.48" stop-color="#373737" stop-opacity="0.22"/>
<stop offset="0.59" stop-color="#1F1F1F" stop-opacity="0.12"/>
<stop offset="0.71" stop-color="#0E0E0E" stop-opacity="0.05"/>
<stop offset="0.84" stop-color="#030303" stop-opacity="0.01"/>
<stop offset="1" stop-opacity="0"/>
</radialGradient>
<radialGradient id="paint27_radial_99_351" cx="0" cy="0" r="1" gradientUnits="userSpaceOnUse" gradientTransform="translate(162.258 763.826) rotate(160.157) scale(58.8849 69.9044)">
<stop stop-color="white"/>
<stop offset="0.06" stop-color="#DEDEDE" stop-opacity="0.87"/>
<stop offset="0.16" stop-color="#ABABAB" stop-opacity="0.67"/>
<stop offset="0.26" stop-color="#7D7D7D" stop-opacity="0.49"/>
<stop offset="0.37" stop-color="#565656" stop-opacity="0.34"/>
<stop offset="0.48" stop-color="#373737" stop-opacity="0.22"/>
<stop offset="0.59" stop-color="#1F1F1F" stop-opacity="0.12"/>
<stop offset="0.71" stop-color="#0E0E0E" stop-opacity="0.05"/>
<stop offset="0.84" stop-color="#030303" stop-opacity="0.01"/>
<stop offset="1" stop-opacity="0"/>
</radialGradient>
<radialGradient id="paint28_radial_99_351" cx="0" cy="0" r="1" gradientUnits="userSpaceOnUse" gradientTransform="translate(109.258 812.826) rotate(160.157) scale(58.8849 69.9044)">
<stop stop-color="white"/>
<stop offset="0.06" stop-color="#DEDEDE" stop-opacity="0.87"/>
<stop offset="0.16" stop-color="#ABABAB" stop-opacity="0.67"/>
<stop offset="0.26" stop-color="#7D7D7D" stop-opacity="0.49"/>
<stop offset="0.37" stop-color="#565656" stop-opacity="0.34"/>
<stop offset="0.48" stop-color="#373737" stop-opacity="0.22"/>
<stop offset="0.59" stop-color="#1F1F1F" stop-opacity="0.12"/>
<stop offset="0.71" stop-color="#0E0E0E" stop-opacity="0.05"/>
<stop offset="0.84" stop-color="#030303" stop-opacity="0.01"/>
<stop offset="1" stop-opacity="0"/>
</radialGradient>
<radialGradient id="paint29_radial_99_351" cx="0" cy="0" r="1" gradientUnits="userSpaceOnUse" gradientTransform="translate(158.258 886.826) rotate(160.157) scale(58.8849 69.9044)">
<stop stop-color="white"/>
<stop offset="0.06" stop-color="#DEDEDE" stop-opacity="0.87"/>
<stop offset="0.16" stop-color="#ABABAB" stop-opacity="0.67"/>
<stop offset="0.26" stop-color="#7D7D7D" stop-opacity="0.49"/>
<stop offset="0.37" stop-color="#565656" stop-opacity="0.34"/>
<stop offset="0.48" stop-color="#373737" stop-opacity="0.22"/>
<stop offset="0.59" stop-color="#1F1F1F" stop-opacity="0.12"/>
<stop offset="0.71" stop-color="#0E0E0E" stop-opacity="0.05"/>
<stop offset="0.84" stop-color="#030303" stop-opacity="0.01"/>
<stop offset="1" stop-opacity="0"/>
</radialGradient>
</defs>
</svg>
